<?xml version="1.0" encoding="utf-8"?>
<!-- Generator: Adobe Illustrator 22.0.1, SVG Export Plug-In . SVG Version: 6.00 Build 0)  -->
<svg version="1.1" id="svg" xmlns="http://www.w3.org/2000/svg" xmlns:xlink="http://www.w3.org/1999/xlink" x="0px" y="0px"
	 viewBox="0 0 400 400" style="enable-background:new 0 0 400 400;" xml:space="preserve">
<style type="text/css">
	.st0{fill:#042C8C;}
</style>
<g id="svgg">
	<path id="path4" class="st0" d="M191.9,11.4c-49,2.5-92.8,22.2-127,57.2C22.5,111.9,3.2,173.3,13.2,232.9
		c18.4,109.8,126.1,180.5,234.2,153.8c73.4-18.2,129.6-78.9,142-153.5C409.3,113,313.4,5.2,191.9,11.4 M215,17.7
		c105.9,7.6,183.9,104.7,168.8,210.1c-12.1,84.1-80.8,149.5-165.4,157.5c-120.1,11.2-219-95-199.1-214
		C35.1,77.5,119.9,10.9,215,17.7 M192.4,29.6c-0.2,0.1-0.9,0.2-1.6,0.3c-7.8,1.3-7.4,16.5,0.4,18.1c4.8,1,8.7-1.3,9.7-5.8l0.3-1.1
		h-2c-1.9,0-2,0-2.4,1.2c-2,5.5-8.4,1-7.5-5.2c0.7-4.4,6.2-5.5,7.5-1.5c0.3,1,4.2,0,3.9-1C199.9,31.6,195.1,28.7,192.4,29.6
		 M212.8,30.9c-0.4,1.7-1.7,16.5-1.5,16.7c0.1,0.1,1,0.3,1.9,0.4l1.7,0.2l0.2-2c0.4-4,0.5-4.3,1.2-4.1c5.2,1.6,9.5-0.9,9.5-5.6
		c0-3.7-1.6-5.1-6.7-5.6c-1.8-0.2-3.9-0.4-4.7-0.5C213.2,30.1,213,30.2,212.8,30.9 M262.7,31.6c-0.4,0.4-0.6,0.8-0.5,1
		c0.3,0.4,1.5,0.7,1.8,0.3c0.3-0.5,1.2-0.4,1.4,0.2c0.1,0.3-0.2,0.9-1,1.7c-0.7,0.6-1.3,1.4-1.3,1.7c0,0.8,1.4,1.1,1.9,0.5
		c0.2-0.3,0.8-0.7,1.4-1c2-1,2.1-3.6,0-4.6C264.8,30.7,263.5,30.7,262.7,31.6 M169.9,32.5c-7.9,3.6-5.4,17.5,3.3,17.7
		c1.1,0,1.5,0.1,0.9,0.2c-0.9,0.1-1,0.2-0.7,1.6c0.3,1.8,0.2,1.7,2.1,1.5l1.6-0.2l-0.2-1.6c-0.2-1.6-0.2-1.6,1-2.1
		c6.4-2.3,6-14.4-0.5-17.2C175.5,31.7,171.7,31.7,169.9,32.5 M230.4,34.9c-0.3,1.5-1.2,5.3-1.9,8.6c-1.5,6.6-1.5,6.2,0.3,6.5
		c0.7,0.1,1.5,0.3,1.8,0.4c0.4,0.1,0.7-0.6,1.3-3.7c0.8-3.5,0.9-3.8,1.5-3.7c0.4,0.1,1.7,0.4,2.8,0.6c2.8,0.6,2.8,0.5,1.9,4.5
		c-0.9,3.9-0.9,3.9,1.5,4.3c1.8,0.3,1.5,1,3.4-7.8c0.9-4.2,1.8-8,1.9-8.4c0.2-0.6,0-0.8-1.4-1.1c-2.5-0.6-2.4-0.7-3.1,2.6
		c-0.3,1.7-0.7,3.1-0.7,3.1c-0.2,0.2-5.5-1-5.8-1.3c-0.2-0.1,0-1.5,0.3-2.9c0.7-3.6,0.7-3.5-0.8-3.8c-0.7-0.1-1.6-0.3-1.9-0.4
		C231.1,32.2,230.9,32.8,230.4,34.9 M221.1,34.9c2.3,1.5,0.5,4.1-2.8,4c-2.6-0.1-2.4,0.1-2.1-2.6l0.2-2.3l1.9,0.2
		C219.5,34.3,220.7,34.6,221.1,34.9 M256.9,35c-1,0.6-1.8,1.2-1.8,1.3c0,0.6,2.6,1.2,3.4,0.8c1.1-0.6,1.4-0.5,1.6,0.6
		c0.2,0.9,2.5,2.4,3,1.9c0.7-0.7-1.2-4.6-2.4-5.1C258.9,33.8,259,33.8,256.9,35 M157.1,35.5c-0.7,0.3-1.4,0.6-1.5,0.6
		c-0.1,0.1,0.3,1.4,0.8,3c0.5,1.6,0.7,3,0.6,3.1c-0.3,0.3-4.9,1.7-5.5,1.7c-0.2,0-0.7-1.3-1.1-2.9c-0.4-1.6-0.9-2.9-0.9-3.1
		c-0.3-0.5-3.9,0.8-3.8,1.4c0.1,0.3,1.2,4.1,2.5,8.5c1.3,4.4,2.3,8,2.4,8c0,0,0.9-0.2,1.9-0.5c2.1-0.6,2.1-0.6,0.9-4.5
		c-1.1-3.7-1.1-3.6,2.1-4.5c3.2-0.9,2.9-1.1,4,3c1.1,3.9,0.8,3.6,2.8,3.1c2.2-0.6,2.2-0.3-0.4-9.3C159.3,34.5,159.4,34.7,157.1,35.5
		 M176.2,36.2c1.1,0.7,2,2.8,2.1,5.1c0.5,6.7-7,7.7-8.7,1.2C168.2,37.2,172.1,33.6,176.2,36.2 M251.5,39.1c-5.4,2.5-7.2,12-3,15.6
		c6.9,6,16.9-0.6,14.9-9.9C262.4,40.1,255.9,37,251.5,39.1 M257.8,42.8c3.8,2.6,1.1,10.5-3.5,10.5c-3.7,0-5.2-2.9-3.6-7.1
		C252,42.6,255.3,41,257.8,42.8 M127.3,46.1c-6.5,1.9-8.2,10-3.2,15.6c3.6,4.1,10.5,3.7,12.7-0.8c0.7-1.4,0.7-1.4,1.3-0.7
		c0.6,0.6,3,0.1,2.9-0.7c0-0.4-4.1-8.7-4.3-8.7c-0.2,0-6.5,3.1-6.7,3.3c-0.2,0.1,1.3,2.9,1.5,2.9c0.1,0,0.9-0.4,1.9-0.9l1.7-0.9
		l0,1.1c0,3.2-3.7,5.4-6.5,3.7c-5.8-3.5-3.4-13.5,2.4-10.4l1.3,0.7l1.7-0.9C137.9,47.8,132.1,44.7,127.3,46.1 M274.8,48.2
		c-0.8,1.6-0.9,1.5,1.9,2.9c0.9,0.5,1.8,0.9,1.8,1c0,0-1.4,2.8-3.2,6.2c-1.8,3.4-3.3,6.2-3.3,6.4c0,0.3,3.4,2,3.6,1.8
		c0.1-0.1,1.6-2.9,3.4-6.3l3.3-6.1l2.2,1.2c2.4,1.4,2.4,1.4,3.3-0.4c0.8-1.5,1.2-1.2-5.9-5C275,46.2,275.7,46.4,274.8,48.2
		 M112.8,54.3c-1.8,1.2-1.9,0.6,1.2,5.5c1.4,2.3,2.7,4.3,2.8,4.6c0.1,0.3-2.4-0.9-5.5-2.5l-5.7-3l-1.7,1.1c-2,1.3-2.3,0.5,3.3,9.2
		c4.3,6.7,4.5,7,5.3,6.5c0.4-0.3,1.1-0.7,1.5-1c1.1-0.7,1.2-0.4-2.3-5.8l-3.1-4.8l5.8,3c6.6,3.5,6.1,3.3,7.9,2.1
		c1.8-1.2,2-0.5-3-8.3C114,52.5,114.6,53.1,112.8,54.3 M286.6,62.7l-4.9,7.3l0.8,0.6c0.4,0.3,1.2,0.8,1.7,1.1l0.9,0.5l2.1-3.1
		c1.2-1.7,2.2-3.1,2.3-3.1c0.1,0,4.2,2.8,5,3.3c0.1,0.1-0.8,1.5-2,3.2c-1.2,1.7-2.1,3.2-2.1,3.3c0,0.4,3.2,2.3,3.4,2.1
		c0.5-0.5,9.7-14.2,9.7-14.4c0-0.4-3.2-2.4-3.4-2c-1.2,1.8-3.4,4.9-3.6,4.9c-0.1,0-1.3-0.7-2.7-1.7l-2.4-1.7l1.7-2.6
		c0.9-1.4,1.7-2.7,1.7-2.8c0-0.2-2.9-2.4-3.2-2.3C291.6,55.4,289.3,58.7,286.6,62.7 M96.7,65.2c-1.7,1.5-1.9,0.9,2.7,6.5
		c4.5,5.5,4.7,6.1,3,7.9c-2.1,2.1-3.2,1.5-8.1-4.6c-3.9-4.9-3.6-4.7-5.4-3.3c-1.8,1.4-1.9,1.1,2.3,6.2c6.2,7.6,8,8.4,12.6,5.3
		c5.2-3.5,5-6.6-1-14.1C98.2,63.5,98.5,63.6,96.7,65.2 M183.4,73.4l-17.6,7.9l-4.4,0l-4.4,0v7.4v7.4h-1.7h-1.7v13.7v13.7h5h5v-13.7
		V96.2h-1.9h-1.9v-6v-6l3.5,0l3.5,0l17.1,9.2c9.4,5,17.3,9.2,17.5,9.1c0.6,0,37.2-16.4,37.3-16.7c0.1-0.2-37-20.3-37.4-20.2
		C201.1,65.4,193.1,69,183.4,73.4 M314.8,67.5c-2.6,0.4-2.6,0.4-1.4,1.7c0.8,0.8,1.2,1,2.1,0.8c1.2-0.2,1.2-0.2,1.2,1.2
		c0,1.4,1.3,3.2,2,2.7c1.5-0.9,0-7.1-1.6-6.7C316.9,67.2,315.9,67.4,314.8,67.5 M304.5,70.5c-5.8,3.7-7.3,10-3.4,14.4
		c7.2,8.2,21-3.3,14.4-12C313,69.7,307.6,68.5,304.5,70.5 M311.4,74c2.5,1.7,2.5,4.6-0.1,7.5c-2.6,3-5.1,3.4-7.2,1.3
		C300.2,78.8,306.8,70.8,311.4,74 M81.4,79c-0.6,0.3-2.6,2.1-4.6,4.1l-3.5,3.6l6.3,6.3l6.3,6.3l1.5-1.4l1.5-1.4l-2.4-2.4L84,91.5
		l1.5-1.4c2.5-2.4,2.5-2.4,3.8-1.6c0.6,0.4,1.5,1.1,2,1.6c1.6,1.8,2,1.8,3.7,0.1c1.6-1.6,1.8-2,0.9-2c-0.3,0-1.6-0.9-2.8-1.9
		c-1.7-1.4-2.5-1.9-3.3-1.9c-1,0-1.1-0.1-1.1-1.3C88.6,79.7,84.8,77.5,81.4,79 M316.8,86.6c-6.9,6.3-6.6,5.8-5.1,7.6l1.1,1.3
		l4.2-3.8c2.3-2.1,4.3-3.8,4.3-3.7c0.1,0.1-0.8,2.6-1.8,5.7c-2.4,7.1-2.3,6.6-0.8,8.3l1.3,1.5l6.6-6l6.6-6l-0.8-1
		c-1.5-2-1.7-1.9-4.6,0.7c-1.5,1.3-3.3,3-4.1,3.7l-1.5,1.3l2-6.2l2-6.2l-1.2-1.4C323.4,80.5,323.8,80.3,316.8,86.6 M84.8,83.3
		c1,0.9,0.7,1.9-1.4,4l-1.9,2L80.2,88c-0.7-0.7-1.3-1.5-1.3-1.7c0-0.5,2.4-2.8,3.6-3.4C83.5,82.4,83.8,82.4,84.8,83.3 M168,100.3
		v13.5l12.5,0l12.5,0l-3,0.6c-5.5,1.2-13.7,4.3-14,5.4c-0.1,0.4,5.8,3.1,8.5,4c1.5,0.4,1.5,0.4,2.1-0.4c8.1-12.5,20.9-13,28.4-1.3
		c0.7,1.1,1.5,1.9,1.8,1.9c1.4,0,9.6-3.3,10.1-4.1c0.5-0.8-8.8-4.4-14.5-5.6l-3.1-0.6l12.5,0l12.5,0v-11.9c0-6.6-0.1-11.9-0.3-11.9
		c-0.1,0-7.6,3.3-16.5,7.3l-16.3,7.3l-16.5-8.8c-9-4.9-16.5-8.8-16.6-8.8C168.1,86.8,168,92.9,168,100.3 M66.7,94.9
		c-2.1,2.7-4.1,5.2-4.4,5.6c-0.5,0.6-0.5,0.7,0.6,1.6c1.4,1.3,1.8,1.3,2.8-0.1c0.4-0.6,1.1-1.5,1.5-1.9l0.7-0.8l4.9,3.9
		c2.7,2.1,5.2,4.1,5.6,4.4c0.6,0.5,0.7,0.4,1.8-0.8c1.6-1.9,1.8-1.6-4.3-6.4L70.3,96l1.6-2l1.6-2l-1.2-1
		C70.7,89.6,71.1,89.3,66.7,94.9 M330.9,99.1c-7.5,3.5-8.5,13.9-1.5,15.8c1.3,0.4,1.4,0.4,0.8,1c-0.6,0.7,0.3,2.8,1.2,2.8
		c0.5,0,7.6-5.2,7.6-5.5c0-0.2-0.9-1.7-2.1-3.3l-2.1-3l-1.3,0.9c-0.7,0.5-1.3,1-1.4,1c-0.1,0.1,0.4,0.8,0.9,1.6c1.4,1.9,1.4,2-0.4,2
		c-6,0-5.6-7.3,0.6-9.8c3.9-1.6,8.1,2.2,5.9,5.3c-0.6,0.8,1,3.7,2,3.7c1.5,0,2.6-4.1,1.8-6.8C341.6,99.4,335.9,96.8,330.9,99.1
		 M56.2,113.1c-6.3,1.6-8.4,10.2-3.6,14.8c6.2,5.9,16.6,2.5,15.4-5.1c-0.2-1.3-0.2-1.3,0.8-1.1c0.8,0.2,1,0,1.5-1l0.6-1.2l-3.8-2.1
		c-5.2-2.9-4.7-2.9-6.6,0.6c-1.8,3.3-1.8,3.6-0.3,4.4c1.3,0.7,1.5,0.5,2.4-1.2c0.8-1.6,0.9-1.6,1.7-0.2c3.1,5.1-4.2,8.3-8.9,3.9
		c-3.2-2.9-1.7-7.8,2.3-7.8c1,0,2.9-2.9,2.3-3.5C59.5,113,57.3,112.8,56.2,113.1 M196.9,117.1c-3,1.2-8.2,6.2-8.2,7.8
		c0,0.5,7,1.7,9.9,1.7l1.5,0v-5.2C200.1,115.5,200.3,115.7,196.9,117.1 M202.6,121.4v5.2l1.6-0.2c4.9-0.5,9.4-1.3,9.4-1.6
		c0-2.2-6.4-7.7-9.9-8.4l-1.1-0.2V121.4 M170.8,123.2c-5.4,4.4-8.4,9.7-9.2,16.3l-0.2,2h10.4h10.4l0.2-2.7c0.3-3.5,1.1-7.8,2-10.1
		c0.8-2.1,0.8-2.1-2.1-3.2c-1.2-0.4-3.8-1.5-5.6-2.5C172.5,121.1,173.4,121.1,170.8,123.2 M228.5,122c-1.4,1-5.4,2.8-8.2,3.8l-2.8,1
		l0.8,2.5c1,3,1.9,7.6,1.9,10.3v2h10.4h10.4v-1.7c0-5.2-3.3-11.4-8.6-16.1C229.9,121.5,229.5,121.3,228.5,122 M346.3,122.2
		c-7.6,2-10.3,9.6-5.3,14.6c1.9,1.9,7.8,3,7.8,1.5c0-1.2-1.6-3.4-2.3-3.3c-4.7,1.2-5.5-5.1-1.1-7.9c4.7-2.9,10.2,0.3,7.4,4.3
		l-0.8,1.2l0.8,1.6c0.9,1.8,1,1.8,2.1,1.1c2.2-1.6,2.8-5.9,1.3-9.1C354.3,122.5,350.7,121,346.3,122.2 M186.9,128.9
		c-1.1,3.1-1.7,6-1.9,9.2l-0.2,3.3h7.7h7.7v-6.2v-6.2l-3.2-0.2c-2.7-0.2-7-0.9-8.9-1.5C187.6,127.3,187.3,127.7,186.9,128.9
		 M212.1,127.8c-1.1,0.3-3.7,0.6-5.8,0.9l-3.7,0.4v6.2v6.2h7.6h7.6l-0.2-2.9c-0.4-5.1-2-11.1-3-11.2
		C214.4,127.4,213.2,127.6,212.1,127.8 M44.5,131.2c-0.3,0.8-0.6,1.6-0.6,1.7c0,0.1,2.4,1.2,5.2,2.4l5.2,2.2l-3.2,0.4
		c-1.8,0.2-4.7,0.6-6.6,0.8l-3.3,0.4l-0.8,1.9c-0.4,1-0.7,1.9-0.6,2c0.1,0.1,3.2,1.4,6.9,2.9s7.3,3,8,3.3l1.3,0.6l0.7-1.5
		c0.4-0.8,0.7-1.6,0.7-1.8c0-0.2-2.4-1.4-5.4-2.6l-5.4-2.2l6.8-0.8l6.8-0.8l0.7-1.7c0.9-2.1,1.6-1.7-7.5-5.4
		C44.5,129.2,45.2,129.3,44.5,131.2 M352.3,140.8c-9.1,3.2-8.2,2.6-7.5,4.8c0.7,2.1,0.3,2,4.6,0.6c1.9-0.7,3.4-1.2,3.5-1.1
		c0,0,0.5,1.4,1.1,2.9l1,2.9l-1.1,0.4c-0.6,0.2-2.2,0.8-3.5,1.2c-1.3,0.4-2.5,0.8-2.5,0.9c-0.4,0.3,1.2,4,1.6,3.8
		c0.3-0.1,4-1.4,8.3-2.9c9-3.2,8.1-2.6,7.5-4.6c-0.7-2.1-0.7-2.1-4-0.9c-1.6,0.6-2.9,1-2.9,1c-0.1-0.1-0.6-1.4-1.1-3l-1-2.9l0.8-0.3
		c0.4-0.2,1.8-0.6,3-1.1c1.2-0.4,2.3-0.8,2.3-0.8c0.4-0.2-1.2-3.6-1.6-3.6C360.2,138,356.5,139.3,352.3,140.8 M162,144.8
		c1.2,5.3,5.5,11.5,10.2,14.8l1.4,1l3.5-1.7c1.9-0.9,4.6-2.1,5.9-2.6c1.8-0.6,2.3-1,2.1-1.3c-0.8-1.9-2-6.1-2.3-8.4l-0.4-2.7h-10.3
		h-10.3L162,144.8 M185.1,144.6c0.1,0.4,0.3,1.6,0.4,2.5c0.3,2.1,1.8,7,2.2,7.3c0.2,0.1,1.8-0.1,3.7-0.5c1.9-0.4,4.6-0.8,6.1-0.9
		l2.7-0.2v-4.5v-4.5h-7.6h-7.6L185.1,144.6 M202.6,148.5v4.7h1.2c0.6,0,2.8,0.3,4.9,0.7c2.1,0.4,4.3,0.8,5,0.9l1.2,0.2l0.8-2.2
		c0.9-2.5,1.8-6.6,1.8-8l0-0.9H210h-7.4V148.5 M220,145.2c-0.5,3.4-1.3,6.7-2.1,8.5c-0.5,1.1-0.8,2.1-0.7,2.1c0,0,0.9,0.3,2,0.7
		c1,0.3,3.7,1.4,6,2.3l4.1,1.7l2.5-2c4.3-3.6,8.1-9.2,8.7-13.1l0.2-1.5h-10.2h-10.2L220,145.2 M35,148.1c-0.4,1.6-0.3,1.9,1.1,2.2
		c0.7,0.2,0.9,0.1,0.9-0.3c0-0.7,0.5-0.7,1-0.1c0.3,0.4,0.2,0.7-0.5,1.5c-4.2,4.5-2.9,11.6,2.7,13.9c7.4,3.2,13.7-0.6,13.3-8
		c-0.2-5.2-3.8-8-10.3-8.1c-1.9,0-3.5-0.1-3.5-0.3c0-0.5-1.5-1.6-2.4-1.8c-0.5-0.1-1.2-0.3-1.5-0.4C35.5,146.6,35.3,146.9,35,148.1
		 M32.6,152.7c-2.2,0.5-1.9,0.3-2.6,2.4c-0.7,2.2-0.7,2.2,2.1,0.8c2.3-1.2,2.8-1.8,2.8-3.2C34.9,152.1,35,152.1,32.6,152.7
		 M46.4,153.7c6.3,2.1,4.2,9.7-2.4,8.5c-3-0.6-5.1-2.2-5.3-4C38.3,154,41.6,152.1,46.4,153.7 M192.4,156.2c-3.5,0.6-3.6,0.8-2.3,2.6
		c2.3,3.3,5.8,5.9,8.7,6.4l1.4,0.2v-4.9v-4.9l-2.5,0C196.3,155.7,193.9,155.9,192.4,156.2 M202.6,160.4c0,5.7,0,5.6,3.4,4
		c3.4-1.6,8.1-6.4,6.9-7.1c-0.5-0.3-5.4-1.2-8.4-1.6l-2-0.2V160.4 M360.7,157.8c-9,2.1-10,2.9-9.8,7.8c0.3,7.2,3,8.5,13,6.3
		c7-1.6,6.4-1.2,5.9-3.6l-0.4-1.9l-2,0.5c-10.8,2.5-11.8,2.6-12.7,0.9c-1.7-3.2-0.5-4.2,7.1-6c3.3-0.7,6-1.4,6-1.4
		c0.1-0.1-0.7-3.6-0.9-3.8C367,156.5,364.1,157,360.7,157.8 M182.5,159c-7.3,3-7.3,3-2.1,5.2c5.5,2.3,12.6,3.9,17.1,3.8l1.8,0
		l-2-0.6c-3.7-1.2-8-4.8-10-8.3C186.3,157.4,186.5,157.4,182.5,159 M215.2,159.3c-1.7,3.1-6.1,6.8-10,8.2l-1.7,0.6l3.1-0.2
		c5.3-0.3,11.6-1.9,16.8-4.3c3.7-1.7,3.7-1.7-2.3-3.9C215.9,157.8,216,157.8,215.2,159.3 M30.3,165.3c-0.4,1.2-0.4,2.7-0.1,2.7
		c0.2,0,0.7,0.1,1.1,0.2c0.6,0.2,0.8,0.1,0.8-0.4c0-0.3,0.3-0.6,0.6-0.6c0.4,0,0.5,0.1,0.2,0.4c-0.2,0.2-0.4,1.2-0.5,2.1l-0.1,1.7
		l6,1c7.4,1.2,8.5,1.8,7.8,4.6c-0.7,2.6-3.9,2.8-14.1,0.7c-0.8-0.2-2.1,3.2-1.5,3.9c0.2,0.2,11.6,1.8,13.1,1.8c3.6,0,5.7-2.6,6-7.2
		c0.3-5-1.5-6.4-9.4-7.7c-4-0.6-5.1-0.9-5.2-1.4C34.6,165.8,30.7,164.1,30.3,165.3 M116.6,175.3c1.6,13.4,29.1,41.6,44,45.2
		c1.3,0.3,2.6,0.7,3,0.8c0.4,0.2-0.3,0.9-3.1,3c-22.5,16.8-33,42.5-34.2,82.9l-0.2,7.9h13.5H153l0.2-4.7
		c1.9-39.9,15.7-71.4,32.2-73.7l1.5-0.2v39.3V315h14.2h14.2v-39.3v-39.3l1.8,0.2c16.6,2.2,29.9,33,32.3,74.3l0.2,4.1h13.4h13.4
		l0-1.8c0-42.6-11-71.1-34.1-88.6c-3.8-2.9-4.3-3.5-2.7-3.5c12.7,0,44.2-31,46.3-45.7l0.2-1.6h-84.9h-84.9L116.6,175.3 M366.7,176.6
		c-6.2,4.5-6,4.4-9.5,4.8l-3.2,0.4l0.1,1.9c0.2,2.4-0.2,2.2,3.6,1.7l3.2-0.4l5.4,2.1c2.9,1.2,5.6,2.2,5.8,2.3c0.5,0.2,0.6-1,0.2-3.1
		c-0.2-1.3-0.2-1.3-3.5-2.4c-1.8-0.6-3.4-1.2-3.6-1.3c-0.1-0.1,1.2-1.1,3-2.3l3.3-2l-0.2-1.4C370.9,173.3,371.3,173.3,366.7,176.6
		 M32.6,187.4c-2.2,1-2.7,2.4-3,8.7l-0.2,5.1l3.4,0.2c11.1,0.7,14.3,0.7,14.3,0c0-0.4,0.1-1.2,0.2-1.9l0.2-1.3l-3.5-0.3l-3.5-0.3
		l0.2-2.4c0.3-3,0.7-3.5,3.1-3.6c1,0,2.3-0.1,2.9-0.1l1.1-0.1v-2.2c0-1.8-0.1-2.2-0.5-2.2c-0.3,0-0.5,0.2-0.5,0.3
		c0,0.2-1.2,0.3-2.9,0.3c-2.4,0-3.1,0.1-3.7,0.7c-0.8,0.7-0.8,0.7-1.7-0.1c-0.7-0.7-3.1-1.6-4-1.6C34.2,186.7,33.4,187,32.6,187.4
		 M36.7,191.4c0.5,0.5,0.6,1.1,0.6,3.4v2.9l-2.2-0.2c-2.7-0.2-2.4,0.1-2.1-3.1C33.4,191.1,35,189.9,36.7,191.4 M188.7,201.4v8.1
		h-1.5c-8.1,0-22-6.9-29.6-14.7l-1.5-1.6h16.3h16.3V201.4 M246.1,193.6c0,0.6-6.3,5.9-9.7,8.2c-5.8,3.9-14.5,7.2-19.8,7.7l-2.7,0.2
		v-8.2v-8.2H230C239.9,193.3,246.1,193.4,246.1,193.6 M356.3,193.5c-1,0.1-1.3,0.3-1.1,0.7c0.1,0.3,0.2,3.3,0.2,6.7v6.2h1.7h1.7
		v-4.8v-4.8h2.1h2.1v4.1v4.1h1.7h1.7v-4.3v-4.3h1.6h1.6l0,3.9c0,5.3,0.1,5.4,1.9,5.4h1.5v-6.6v-6.6l-7.7,0.1
		C361,193.4,357,193.5,356.3,193.5 M374.7,197.6c0,1.3,0.2,1.6,0.9,2.1l0.9,0.6l-0.9,0.7c-0.8,0.7-1.7,3.7-1,3.7
		c0.2,0,1.1-0.6,2.1-1.3c2.5-1.8,2.7-3.9,0.3-6C375.1,195.7,374.7,195.7,374.7,197.6 M29.6,205.3c-0.2,0.3,0.4,12.2,0.7,13.5
		c0.1,0.7,0.4,0.8,1.7,0.8h1.5V217c0-3.1-0.4-2.8,5.9-3.1c2.6-0.1,5.5-0.3,6.5-0.4l1.9-0.2l-0.2-1.7c-0.3-2.3,0.3-2.1-7.4-1.7
		c-3.7,0.2-6.8,0.4-6.9,0.3c-0.1-0.1-0.2-1.2-0.3-2.6l-0.2-2.5h-1.5C30.5,205,29.7,205.2,29.6,205.3 M355,212.5c0,0.9,0,1.7-0.1,1.8
		c0,0.1,2.3,0.5,5.2,0.8c2.9,0.3,5.5,0.6,5.8,0.7c0.3,0.1-2.2,1.3-5.4,2.7c-7.1,3-6.4,2.5-6.5,4.9l-0.1,1.9l8.6,0.9
		c4.8,0.5,8.7,0.9,8.8,0.8c0.1-0.1,0.2-0.9,0.3-1.8c0.2-2,0.6-1.8-6.4-2.5c-2.3-0.2-4.2-0.5-4.2-0.6c0-0.1,2.5-1.3,5.6-2.6
		c3.1-1.3,5.7-2.4,5.8-2.5c0.1-0.1,0.7-4,0.6-4.1c-0.1-0.1-16.2-1.8-17.1-1.8C355.1,210.9,355,211.1,355,212.5 M52.7,263.8
		c-8,4-5.2,16.1,3.7,16c5.2,0,8.4-3.2,8.5-8.3C64.8,265.2,58.3,261.1,52.7,263.8 M343.9,263.7c-7.9,3.4-6,15.4,2.5,16.3
		c9.6,1,13.1-12.6,4.1-16.4C349.1,263,345.5,263,343.9,263.7 M92.2,303.9c-1.6,1.8-1.6,1.7,1,4l2.2,2l-3.9,4.1
		c-2.1,2.3-4.8,5.1-5.9,6.4l-2,2.2l1.5,1.5c2,2,1.5,2.3,7.9-4.5c6.5-6.9,5.8-6.6,8.4-4.1c2.2,2.2,2.5,2.2,4,0.3l1-1.3l-4.5-4.3
		c-2.5-2.4-5.4-5.1-6.4-6l-1.9-1.7L92.2,303.9 M301.1,309.9l-1.8,1.8l4.4,10.3c2.4,5.7,4.4,10.4,4.5,10.5c0.2,0.2,3.6-3.2,3.6-3.6
		c0-0.2-0.4-1.2-0.8-2.2l-0.8-1.8l2.8-2.5l2.8-2.5l1.9,1.1l1.9,1.1l1.8-1.6c1-0.9,1.8-1.7,1.8-1.8c0-0.3-19.5-10.7-20-10.7
		C303.1,308,302.1,308.9,301.1,309.9 M290.8,311c-0.4,0.3-0.8,1-0.9,1.5c-0.2,0.8-0.5,1.1-2.3,1.8c-2.9,1.1-4,3.3-2.8,5.6
		c0.5,0.9,2.1,0,2.1-1.2c0-1,0.4-1.3,2.5-2.1c2.3-0.9,3.1-2,2.9-3.9C292.1,310.7,291.8,310.3,290.8,311 M308.8,316.2l3,1.7l-1.6,1.5
		c-2,1.8-2,1.8-2.7,0.2c-0.3-0.7-0.9-2.2-1.4-3.3c-0.5-1.1-0.8-2-0.6-1.9C305.6,314.4,307.1,315.2,308.8,316.2 M101.7,324.6
		c-7.3,10.1-6.6,8.6-4.5,10.2c2.2,1.6,2,1.7,4.5-1.9c2.5-3.6,2.3-3.5,4.8-1.7c3.2,2.4,3.5,3.1,1.8,5.4c-1.1,1.5-2.6,4.3-2.4,4.4
		c3.6,2.8,5.2,3.5,4.6,2c-0.1-0.3,0.4-1.4,1.2-2.6c2-3,2.5-4.4,2.1-5.7c-0.3-1.1-0.3-1.1,1-1.1c3.8,0,6.3-4.8,4.5-8.5
		c-0.6-1.3-7.3-6.7-10.9-8.9C108.1,316.1,105.7,319.1,101.7,324.6 M290.5,318.8c-1,0.8-1.7,1.5-1.6,1.7c0.1,0.3,9.9,13.2,12.7,16.9
		c0.4,0.5,3.9-2.9,3.5-3.5c-1.5-2.1-12.5-16.5-12.7-16.5C292.3,317.4,291.5,318,290.5,318.8 M112.1,324c3.4,2.5,3.7,3.3,2.1,5.2
		c-1.2,1.3-1.9,1.1-5.5-1.3l-2.2-1.5l1.4-2.1C109.6,321.8,109.2,321.8,112.1,324 M135.5,323.2c0,1.7,2.3,5.8,3.6,6.3
		c1.8,0.8,1.7,0.9,1.2-2.2l-0.4-2.6l-2.1-0.9C135.6,322.8,135.5,322.8,135.5,323.2 M283.5,324c-0.8,0.5-1.6,1.1-1.7,1.2
		c-0.1,0.1,0.7,1.6,1.8,3.3c1.1,1.7,1.9,3.2,1.9,3.4c0,0.3-6.2,4.4-6.4,4.2c0-0.1-0.9-1.5-1.9-3.1c-1-1.7-2-3.1-2.1-3.2
		c-0.5-0.3-4.1,2.1-3.9,2.6c0.4,1.1,10.7,17.5,11.1,17.6c0.6,0.2,4-2,3.8-2.5c-0.1-0.4-2.7-4.6-4.3-6.9c-0.5-0.7-0.3-0.8,2.6-2.7
		c3.9-2.4,3.2-2.6,6,1.9c1.3,2.1,2.4,3.8,2.6,3.8c0.6,0,3.9-2.3,3.8-2.6c-0.3-1.2-10.9-17.8-11.3-17.8
		C285.2,323,284.3,323.4,283.5,324 M129.6,326.6c-2.8,1.5-2.7,1.5-0.7,2.3c1.5,0.6,1.7,0.6,2.8,0.1c1.5-0.7,1.4-0.8,1.8,0.7
		c0.3,1,0.6,1.5,1.6,1.9c2.2,1,2.2,0.9,1.5-2.2l-0.7-2.7l-1.7-0.7C132,325.2,132.3,325.1,129.6,326.6 M121.6,338.3
		c-4.5,4.1-8.2,7.6-8.2,7.7c0,0.1,1,0.7,2.1,1.4l2.1,1.1l1.6-1.6l1.6-1.6l3.2,1.7c3.5,1.9,3.5,1.8,2.9,4.8l-0.3,1.4l2.2,1.2
		c2.2,1.2,2.2,1.2,2.4,0.5c0.3-0.9,3.4-21.7,3.3-21.9c-0.3-0.3-4.4-2.2-4.7-2.2C129.9,330.9,126.1,334.2,121.6,338.3 M259.7,336.3
		c-9.4,3.2-9.6,17-0.3,21.4c4,1.9,11.9-0.5,11.9-3.6c0-1,0.7-1.3,1.3-0.5c0.6,0.8,0.7,0.8,1.9,0.3c1.8-0.7,1.8-0.7-0.2-5.3
		c-1-2.3-2-4.6-2.2-5.2l-0.5-1.1l-4.1,1.8c-2.2,1-4.1,1.8-4.2,1.9c-0.2,0.2,1,3.2,1.4,3.4c0.2,0.1,1.2-0.2,2.3-0.7
		c1.1-0.5,2-0.9,2.1-0.9c0.5,0,0,2.9-0.7,3.8c-3,4.5-8.8,2.6-10.7-3.5c-1.7-5.7,2.8-10.3,7.1-7.4l1.3,0.9l1.9-0.8
		c2.4-1,2.5-1.4,0.9-3C266.9,335.7,263.3,335.1,259.7,336.3 M129.1,340.6c-0.7,3.9-0.8,4-2.4,3.1c-2.6-1.4-2.6-1.2,0.2-4
		C129.9,336.6,129.8,336.5,129.1,340.6 M141.9,342.8c-1,2.8-2.6,7.3-3.5,10.1l-1.8,4.9l1.2,0.5c0.7,0.3,1.7,0.6,2.2,0.7l1,0.2
		l2.4-6.8l2.4-6.8l0.9,4.9c0.5,2.7,1.2,6.4,1.5,8.2l0.6,3.3l2.1,0.8c2.6,0.9,2,1.9,5.9-9.2c3.9-11.2,3.8-10.2,1.4-11.1
		c-2.4-0.9-1.7-1.7-4.4,5.8c-1.2,3.5-2.3,6.4-2.4,6.5c-0.1,0.1-0.7-3.4-1.5-7.7l-1.4-7.8l-1.6-0.7
		C143.6,337.3,143.9,337.1,141.9,342.8 M244.1,342.7c-1.8,0.4-1.8,0.1,0.1,7.5c0.9,3.3,1.5,6.1,1.4,6.1c-0.1,0.1-2.6-2.4-5.5-5.5
		l-5.4-5.6l-2.3,0.6c-1.3,0.3-2.4,0.7-2.4,0.7c-0.1,0.1,5.1,20.3,5.3,20.5c0.2,0.2,4-0.7,4.1-1c0.1-0.2-2.2-9.8-3.1-12.8
		c-0.2-0.6,1.8,1.2,5.6,5l5.9,5.8l2.1-0.6c2.6-0.7,2.7,0.4-0.4-11.4C246.6,341.4,247,342,244.1,342.7 M171.6,347.5
		c-0.3,1.6-0.9,5.9-0.9,6.4c0,0.2-0.3,0.4-0.7,0.4c-0.7,0-0.8,0.2-1.2,2.7c-0.1,0.8-0.1,1.1,0.3,1.1c0.8,0,0.9,0.5,0.3,4.6
		c-0.7,5.2-1,4.8,4.3,5.6c9.6,1.3,13.3-0.8,14.7-8.6c1.5-8-1.3-11.2-10.9-12.6C171.5,346.2,171.9,346.2,171.6,347.5 M214.6,348.4
		c-0.5,0.1-0.9,0.2-0.9,0.2s0.5,4.6,1,10.2c0.6,5.6,1,10.3,1,10.6c0,0.4,4.2,0.4,4.8,0c0.1,0-0.4-4.7-1-10.3
		c-0.6-5.6-1.1-10.4-1.1-10.6C218.5,348.1,216.7,348.1,214.6,348.4 M198.9,349.1c-1,0.2-1.1,0.4-4.6,10.6
		c-1.9,5.7-3.5,10.5-3.5,10.6c0,0.2,1.1,0.2,2.5,0.2l2.5-0.1l0.7-2.2l0.7-2.2l3.8,0.1l3.8,0.1l0.7,2l0.7,2h2.6
		c1.9,0,2.6-0.1,2.4-0.4c-0.1-0.2-1.8-5.1-3.9-10.7l-3.7-10.3l-1.8,0C200.8,348.9,199.5,349,198.9,349.1 M179.5,351.5
		c4,0.5,5.3,4,3.5,9.5c-0.9,2.9-2.5,3.9-5.8,3.6c-3.3-0.3-3.1,0-2.8-2.9l0.3-2.3l2.5,0.1l2.5,0.1l0.2-1.3c0.4-2.6,0.6-2.5-3.1-3
		l-1.4-0.2l0.3-1.6c0.1-0.9,0.3-1.8,0.3-2.1c0-0.3,0.3-0.4,1-0.3C177.4,351.1,178.6,351.3,179.5,351.5 M202.1,358.7l1,3.2l-2.4,0.1
		c-1.5,0.1-2.3,0-2.3-0.2c0.1-0.2,0.6-1.8,1.1-3.6C200.8,354.5,200.8,354.5,202.1,358.7 M200.9,371.9l-1.5,0.1v1.7
		c0,2,0.2,2.2,2.4,1.9l1.7-0.2v-1.9c0-1.6-0.1-1.9-0.6-1.8C202.7,371.7,201.7,371.8,200.9,371.9 M-72.2-73.2 M-72.2-73.2
		 M-72.2-73.2 M-72.2-73.2"/>
</g>
</svg>
